HIERARCHY
ROOT hip
{
	OFFSET 0.000000 0.000000 0.000000
	CHANNELS 6 Xposition Yposition Zposition Xrotation Zrotation Yrotation 
	JOINT abdomen
	{
		OFFSET 0.000000 3.422050 0.000000
		CHANNELS 3 Xrotation Zrotation Yrotation 
		JOINT chest
		{
			OFFSET 0.000000 8.486693 -0.684411
			CHANNELS 3 Xrotation Zrotation Yrotation 
			JOINT neck
			{
				OFFSET 0.000000 10.266162 -0.273764
				CHANNELS 3 Xrotation Zrotation Yrotation 
				JOINT head
				{
					OFFSET 0.000000 3.148285 0.000000
					CHANNELS 3 Xrotation Zrotation Yrotation 
					End Site
					{
						OFFSET 0.000000 3.148289 0.000000
					}
				}
			}
			JOINT lCollar
			{
				OFFSET 3.422053 6.707223 -0.821293
				CHANNELS 3 Yrotation Zrotation Xrotation 
				JOINT lShldr
				{
					OFFSET 3.285171 0.000000 0.000000
					CHANNELS 3 Zrotation Yrotation Xrotation 
					JOINT lForeArm
					{
						OFFSET 10.129278 0.000000 0.000000
						CHANNELS 3 Yrotation Zrotation Xrotation 
						JOINT lHand
						{
							OFFSET 8.486692 0.000000 0.000000
							CHANNELS 3 Zrotation Yrotation Xrotation 
							End Site
							{
								OFFSET 4.106464 0.000000 0.000000
							}
						}
					}
				}
			}
			JOINT rCollar
			{
				OFFSET -3.558935 6.707223 -0.821293
				CHANNELS 3 Yrotation Zrotation Xrotation 
				JOINT rShldr
				{
					OFFSET -3.148289 0.000000 0.000000
					CHANNELS 3 Zrotation Yrotation Xrotation 
					JOINT rForeArm
					{
						OFFSET -10.266159 0.000000 0.000000
						CHANNELS 3 Yrotation Zrotation Xrotation 
						JOINT rHand
						{
							OFFSET -8.349810 0.000000 0.000000
							CHANNELS 3 Zrotation Yrotation Xrotation 
							End Site
							{
								OFFSET -4.106464 0.000000 0.000000
							}
						}
					}
				}
			}
		}
	}
	JOINT lThigh
	{
		OFFSET 5.338403 -1.642589 1.368821
		CHANNELS 3 Xrotation Zrotation Yrotation 
		JOINT lShin
		{
			OFFSET -2.053232 -20.121670 0.000000
			CHANNELS 3 Xrotation Zrotation Yrotation 
			JOINT lFoot
			{
				OFFSET 0.000000 -19.300380 -1.231939
				CHANNELS 3 Xrotation Yrotation Zrotation 
				End Site
				{
					OFFSET 0.000000 -2.463878 4.653993
				}
			}
		}
	}
	JOINT rThigh
	{
		OFFSET -5.338403 -1.642589 1.368821
		CHANNELS 3 Xrotation Zrotation Yrotation 
		JOINT rShin
		{
			OFFSET 2.053232 -20.121670 0.000000
			CHANNELS 3 Xrotation Zrotation Yrotation 
			JOINT rFoot
			{
				OFFSET 0.000000 -19.300380 -1.231939
				CHANNELS 3 Xrotation Yrotation Zrotation 
				End Site
				{
					OFFSET 0.000000 -2.463878 4.653993
				}
			}
		}
	}
}
MOTION
Frames: 11
Frame Time: 0.049989
0.000000 43.528500 0.000000 0.000000 0.000000 0.000000 0.000000 0.000000 0.000000 0.000000 0.000000 0.000000 0.000000 0.000000 0.000000 0.000000 0.000000 0.000000 0.000000 0.000000 0.000000 0.000000 0.000000 0.000000 0.000000 0.000000 0.000000 0.000000 0.000000 0.000000 0.000000 0.000000 0.000000 0.000000 0.000000 0.000000 0.000000 0.000000 0.000000 0.000000 0.000000 0.000000 0.000000 0.000000 0.000000 0.000000 0.000000 0.000000 0.000000 0.000000 0.000000 0.000000 0.000000 0.000000 0.000000 0.000000 0.000000 0.000000 0.000000 0.000000 
-0.000000 21.502083 17.965366 -74.999733 -0.006935 -179.994675 -1.002116 -2.000618 -1.002116 19.997797 -1.000559 -1.002071 -0.316486 0.000000 0.000000 -18.001886 0.000000 0.000000 24.701942 -0.810895 4.025052 39.614742 -52.427505 -36.524395 -113.049843 56.997543 -5.794769 23.996601 -0.001636 35.398666 -23.340801 8.638927 4.023887 -30.537760 52.894554 -28.591814 121.757195 -51.490662 2.039179 -24.001095 -0.000522 35.399429 -91.556061 27.067476 9.616942 105.604652 3.812277 -2.202236 54.732471 1.787908 7.405140 -91.615601 -27.178539 -9.725948 105.693008 -3.883052 2.247285 55.290913 -1.932177 -7.474408 
-0.000000 21.502083 17.889606 -74.999115 -0.006935 -179.994675 -1.570693 -2.046655 -1.023326 20.749735 -1.019387 -1.002706 -0.632240 0.000000 0.000000 -16.405119 0.000000 0.000000 25.019747 -1.057644 4.144163 39.719311 -52.735828 -36.561665 -113.400482 56.753933 -5.498848 24.074717 -0.152531 35.461033 -23.680548 8.838839 4.212991 -30.571213 53.206257 -28.572462 121.989243 -51.244011 2.223739 -24.082474 0.175821 35.473740 -91.556061 27.067474 9.616943 105.604645 3.812277 -2.202236 54.732471 1.787907 7.405139 -91.615601 -27.178537 -9.725948 105.693008 -3.883052 2.247284 55.290913 -1.932177 -7.474407 
-0.000000 21.502083 17.813845 -74.999123 -0.006935 -179.994675 -2.139498 -2.092919 -1.044087 21.502190 -1.038219 -1.003590 -0.948034 0.000000 0.000000 -14.803303 0.000000 0.000000 25.338156 -1.303781 4.264678 39.824970 -53.044151 -36.600143 -113.746613 56.509300 -5.207514 24.152672 -0.303518 35.523193 -24.021217 9.037680 4.403435 -30.604729 53.517982 -28.553263 122.218803 -50.996864 2.405740 -24.163633 0.352278 35.547806 -91.556061 27.067476 9.616942 105.604652 3.812277 -2.202236 54.732471 1.787908 7.405140 -91.615601 -27.178539 -9.725950 105.693008 -3.883053 2.247285 55.290916 -1.932177 -7.474409 
-0.000000 21.502083 17.738085 -74.999123 -0.006935 -179.994675 -2.708500 -2.139402 -1.064394 22.255102 -1.057048 -1.004721 -1.263860 0.000000 0.000000 -13.197041 0.000000 0.000000 25.657171 -1.549289 4.386595 39.931751 -53.352467 -36.639858 -114.088295 56.263672 -4.920677 24.230463 -0.454594 35.585152 -24.362810 9.235433 4.595216 -30.638334 53.829765 -28.534239 122.445938 -50.749237 2.585230 -24.244562 0.528847 35.621616 -91.556061 27.067476 9.616942 105.604652 3.812277 -2.202236 54.732471 1.787908 7.405140 -91.615601 -27.178539 -9.725948 105.693008 -3.883052 2.247285 55.290913 -1.932177 -7.474408 
-0.000000 21.502083 17.662323 -74.999123 -0.006935 -179.994675 -3.277675 -2.186099 -1.084246 23.008417 -1.075871 -1.006100 -1.579716 0.000000 0.000000 -11.586955 0.000000 0.000000 25.976810 -1.794154 4.509914 40.039673 -53.660748 -36.680824 -114.425636 56.017109 -4.638282 24.308102 -0.605758 35.646915 -24.705318 9.432082 4.788327 -30.672003 54.141567 -28.515369 122.670677 -50.501163 2.762246 -24.325279 0.705528 35.695198 -91.556061 27.067476 9.616942 105.604652 3.812277 -2.202236 54.732471 1.787908 7.405140 -91.615601 -27.178537 -9.725947 105.693008 -3.883052 2.247285 55.290909 -1.932177 -7.474408 
-0.000000 21.502083 17.586563 -74.999123 -0.006935 -179.994675 -3.846993 -2.233003 -1.103637 23.762064 -1.094682 -1.007728 -1.895595 0.000000 0.000000 -9.973660 0.000000 0.000000 26.297058 -2.038359 4.634631 40.148792 -53.969032 -36.723095 -114.758682 55.769596 -4.360236 24.385576 -0.757010 35.708473 -25.048735 9.627614 4.982763 -30.705774 54.453430 -28.496691 122.893044 -50.252621 2.936822 -24.405760 0.882319 35.768517 -91.556061 27.067476 9.616942 105.604652 3.812277 -2.202236 54.732479 1.787908 7.405140 -91.615601 -27.178539 -9.725950 105.693016 -3.883053 2.247285 55.290913 -1.932177 -7.474408 
-0.000000 21.502083 17.510801 -74.999123 -0.006935 -179.994675 -4.416427 -2.280106 -1.122566 24.515976 -1.113476 -1.009604 -2.211494 0.000000 0.000000 -8.357796 0.000000 0.000000 26.617922 -2.281888 4.760746 40.259109 -54.277271 -36.766682 -115.087555 55.521187 -4.086481 24.462894 -0.908347 35.769829 -25.393064 9.822011 5.178519 -30.739614 54.765293 -28.478165 123.113083 -50.003654 3.108998 -24.486036 1.059215 35.841610 -91.556061 27.067476 9.616942 105.604652 3.812277 -2.202236 54.732471 1.787908 7.405140 -91.615601 -27.178539 -9.725948 105.693008 -3.883052 2.247285 55.290909 -1.932177 -7.474408 
-0.000000 21.502083 17.435041 -74.999123 -0.006935 -179.994675 -4.985950 -2.327402 -1.141028 25.270084 -1.132249 -1.011727 -2.527407 0.000000 0.000000 -6.739995 0.000000 0.000000 26.939407 -2.524727 4.888257 40.370670 -54.585476 -36.811626 -115.412247 55.271873 -3.816933 24.540052 -1.059770 35.830978 -25.738300 10.015261 5.375590 -30.773544 55.077175 -28.459822 123.330856 -49.754246 3.278817 -24.566082 1.236218 35.914448 -91.556053 27.067474 9.616943 105.604652 3.812277 -2.202236 54.732471 1.787908 7.405140 -91.615601 -27.178537 -9.725947 105.693008 -3.883052 2.247285 55.290913 -1.932177 -7.474408 
-0.000000 21.502083 17.359280 -74.999123 -0.006935 -179.994675 -5.555533 -2.374883 -1.159021 26.024336 -1.150996 -1.014098 -2.843330 0.000000 0.000000 -5.120904 0.000000 0.000000 27.261513 -2.766859 5.017161 40.483505 -54.893627 -36.857956 -115.732887 55.021698 -3.551533 24.617060 -1.211276 35.891933 -26.084427 10.207342 5.573968 -30.807570 55.389080 -28.441660 123.546387 -49.504436 3.446309 -24.645916 1.413324 35.987053 -91.556061 27.067472 9.616939 105.604652 3.812277 -2.202236 54.732468 1.787908 7.405140 -91.615601 -27.178539 -9.725948 105.693008 -3.883052 2.247285 55.290913 -1.932177 -7.474408 
-0.000000 21.502083 17.283520 -74.999123 -0.006935 -179.994675 -6.125150 -2.422544 -1.176543 26.778656 -1.169711 -1.016715 -3.159257 0.000000 0.000000 -3.501165 0.000000 0.000000 27.584236 -3.008270 5.147458 40.597660 -55.201752 -36.905720 -116.049545 54.770695 -3.290207 24.693903 -1.362864 35.952686 -26.431444 10.398245 5.773648 -30.841700 55.701008 -28.423689 123.759682 -49.254200 3.611515 -24.725533 1.590533 36.059418 -91.556061 27.067476 9.616942 105.604652 3.812277 -2.202236 54.732471 1.787908 7.405140 -91.615601 -27.178539 -9.725948 105.693008 -3.883052 2.247285 55.290916 -1.932178 -7.474408 
